<svg width="390" height="499" viewBox="0 0 390 499" fill="none" xmlns="http://www.w3.org/2000/svg">
<path d="M-56.4489 452.856C-56.4489 452.856 -57.6889 198.88 -56.4488 180.304C-55.2087 161.728 -12.4336 96.8301 49.5809 115.61C111.595 134.39 272.609 118.058 276.987 115.61C281.364 113.162 385.014 92.6315 389.992 0V452.856C390.286 470.185 382.726 477.806 353.021 487H-9.71206C-40.9554 482.809 -55.8682 478.625 -56.4489 452.856Z" fill="#6092DE"/>
<path d="M-56.4489 511.856C-56.4489 511.856 -57.6889 257.88 -56.4488 239.304C-55.2087 220.728 -12.4336 155.83 49.5809 174.61C111.595 193.39 272.609 177.058 276.987 174.61C281.364 172.162 385.014 151.632 389.992 59V511.856C390.286 529.185 382.726 536.806 353.021 546H-9.71206C-40.9554 541.809 -55.8682 537.625 -56.4489 511.856Z" fill="#88ADE6"/>
<path d="M-56.4489 559.856C-56.4489 559.856 -57.6889 305.88 -56.4488 287.304C-55.2087 268.728 -12.4336 203.83 49.5809 222.61C111.595 241.39 272.609 225.058 276.987 222.61C281.364 220.162 385.014 199.632 389.992 107V559.856C390.286 577.185 382.726 584.806 353.021 594H-9.71206C-40.9554 589.809 -55.8682 585.625 -56.4489 559.856Z" fill="#AFC9EF"/>
</svg>
